# xmcd CD database file
#
# Track frame offsets:
#	150
#	122271
#	174842
#	206992
#	244006
#
# Disc length: 3570 seconds
#
# Revision: 0
# Processed by: cddbd v1.5PL3 Copyright (c) Steve Scherf et al.
# Submitted via: CDex 1.50
#
DISCID=390df005
DTITLE=John Butcher and John Edwards - Optic
DYEAR=2002
DGENRE=Jazz
TTITLE0=Cocktail Bar
TTITLE1=Panel 5
TTITLE2=Grottes 1
TTITLE3=Plate XI
TTITLE4=Interior II
EXTD=YEAR: 2002
EXTT0=
EXTT1=
EXTT2=
EXTT3=
EXTT4=
PLAYORDER=
